<mxfile host="app.diagrams.net" modified="2023-09-25T10:02:46.481Z" agent="Mozilla/5.0 (Windows NT 10.0; Win64; x64) AppleWebKit/537.36 (KHTML, like Gecko) Chrome/116.0.0.0 Safari/537.36" etag="HDSaohP69_Bi84NoK1kb" version="21.8.2" type="device">
  <diagram name="Trang-1" id="X8OEvsbZvneJaoXkEAef">
    <mxGraphModel dx="1050" dy="574" grid="1" gridSize="10" guides="1" tooltips="1" connect="1" arrows="1" fold="1" page="1" pageScale="1" pageWidth="827" pageHeight="1169" math="0" shadow="0">
      <root>
        <mxCell id="0" />
        <mxCell id="1" parent="0" />
        <mxCell id="AGMOOFafzIrbF3UAfsLZ-9" value="Yêu cầu" style="edgeStyle=orthogonalEdgeStyle;rounded=0;orthogonalLoop=1;jettySize=auto;html=1;entryX=0.5;entryY=1;entryDx=0;entryDy=0;" edge="1" parent="1" source="AGMOOFafzIrbF3UAfsLZ-1" target="AGMOOFafzIrbF3UAfsLZ-4">
          <mxGeometry relative="1" as="geometry">
            <Array as="points">
              <mxPoint x="430" y="310" />
              <mxPoint x="640" y="310" />
            </Array>
          </mxGeometry>
        </mxCell>
        <mxCell id="AGMOOFafzIrbF3UAfsLZ-1" value="Hệ thống" style="ellipse;whiteSpace=wrap;html=1;" vertex="1" parent="1">
          <mxGeometry x="370" y="220" width="120" height="80" as="geometry" />
        </mxCell>
        <mxCell id="AGMOOFafzIrbF3UAfsLZ-5" value="Xử lý" style="edgeStyle=orthogonalEdgeStyle;rounded=0;orthogonalLoop=1;jettySize=auto;html=1;" edge="1" parent="1" source="AGMOOFafzIrbF3UAfsLZ-2" target="AGMOOFafzIrbF3UAfsLZ-1">
          <mxGeometry relative="1" as="geometry" />
        </mxCell>
        <mxCell id="AGMOOFafzIrbF3UAfsLZ-11" value="Phản hồi" style="edgeStyle=orthogonalEdgeStyle;rounded=0;orthogonalLoop=1;jettySize=auto;html=1;entryX=0;entryY=0.5;entryDx=0;entryDy=0;" edge="1" parent="1" source="AGMOOFafzIrbF3UAfsLZ-2" target="AGMOOFafzIrbF3UAfsLZ-3">
          <mxGeometry relative="1" as="geometry">
            <Array as="points">
              <mxPoint x="300" y="70" />
              <mxPoint x="80" y="70" />
              <mxPoint x="80" y="320" />
            </Array>
          </mxGeometry>
        </mxCell>
        <mxCell id="AGMOOFafzIrbF3UAfsLZ-2" value="Nhân viên quản ký" style="rounded=0;whiteSpace=wrap;html=1;" vertex="1" parent="1">
          <mxGeometry x="240" y="140" width="120" height="60" as="geometry" />
        </mxCell>
        <mxCell id="AGMOOFafzIrbF3UAfsLZ-13" value="Phiếu nhập hàng" style="edgeStyle=orthogonalEdgeStyle;rounded=0;orthogonalLoop=1;jettySize=auto;html=1;entryX=0;entryY=0.5;entryDx=0;entryDy=0;exitX=0.5;exitY=0;exitDx=0;exitDy=0;" edge="1" parent="1" source="AGMOOFafzIrbF3UAfsLZ-3" target="AGMOOFafzIrbF3UAfsLZ-2">
          <mxGeometry relative="1" as="geometry" />
        </mxCell>
        <mxCell id="AGMOOFafzIrbF3UAfsLZ-3" value="Nhà cung cấp" style="rounded=0;whiteSpace=wrap;html=1;" vertex="1" parent="1">
          <mxGeometry x="100" y="290" width="120" height="60" as="geometry" />
        </mxCell>
        <mxCell id="AGMOOFafzIrbF3UAfsLZ-7" value="Phản hồi" style="edgeStyle=orthogonalEdgeStyle;rounded=0;orthogonalLoop=1;jettySize=auto;html=1;entryX=1;entryY=0.5;entryDx=0;entryDy=0;" edge="1" parent="1" source="AGMOOFafzIrbF3UAfsLZ-4" target="AGMOOFafzIrbF3UAfsLZ-1">
          <mxGeometry relative="1" as="geometry" />
        </mxCell>
        <mxCell id="AGMOOFafzIrbF3UAfsLZ-4" value="Quản trị" style="rounded=0;whiteSpace=wrap;html=1;" vertex="1" parent="1">
          <mxGeometry x="580" y="220" width="120" height="60" as="geometry" />
        </mxCell>
        <mxCell id="AGMOOFafzIrbF3UAfsLZ-6" value="Phản hồi" style="edgeStyle=orthogonalEdgeStyle;rounded=0;orthogonalLoop=1;jettySize=auto;html=1;entryX=0.425;entryY=1.02;entryDx=0;entryDy=0;entryPerimeter=0;" edge="1" parent="1" source="AGMOOFafzIrbF3UAfsLZ-1" target="AGMOOFafzIrbF3UAfsLZ-2">
          <mxGeometry relative="1" as="geometry" />
        </mxCell>
      </root>
    </mxGraphModel>
  </diagram>
</mxfile>
